<svg width="1200" height="180" viewBox="0 0 1200 180" fill="none" xmlns="http://www.w3.org/2000/svg">
  <rect width="1200" height="180" fill="#06070f"/>
  <g stroke="#2fffd5" stroke-opacity="0.2">
    <path d="M0 30H1200"/>
    <path d="M0 60H1200"/>
    <path d="M0 90H1200"/>
    <path d="M0 120H1200"/>
    <path d="M0 150H1200"/>
  </g>
  <g stroke="#7b2fff" stroke-opacity="0.25">
    <path d="M60 0V180"/>
    <path d="M120 0V180"/>
    <path d="M180 0V180"/>
    <path d="M240 0V180"/>
    <path d="M300 0V180"/>
    <path d="M360 0V180"/>
    <path d="M420 0V180"/>
    <path d="M480 0V180"/>
    <path d="M540 0V180"/>
    <path d="M600 0V180"/>
    <path d="M660 0V180"/>
    <path d="M720 0V180"/>
    <path d="M780 0V180"/>
    <path d="M840 0V180"/>
    <path d="M900 0V180"/>
    <path d="M960 0V180"/>
    <path d="M1020 0V180"/>
    <path d="M1080 0V180"/>
    <path d="M1140 0V180"/>
  </g>
</svg>